<svg xmlns="http://www.w3.org/2000/svg" fill="none" viewBox="23.27 17.16 25.46 37.67">
<path d="M42.1564 37.0209L25.4627 46.6601C23.3673 47.87 22.6494 50.5497 23.8592 52.6453C25.0689 54.7409 27.7483 55.459 29.8436 54.249L46.5373 44.6098C48.6326 43.3999 49.3506 40.7202 48.1408 38.6246C46.931 36.529 44.2517 35.8109 42.1564 37.0209Z" fill="white" fill-opacity="0.5"/>
<path d="M46.5373 37.0033L29.8436 27.3641C27.7483 26.1542 25.0689 26.8722 23.8592 28.9679C22.6494 31.0634 23.3673 33.7432 25.4627 34.953L42.1563 44.5923C44.2517 45.8022 46.9311 45.0842 48.1408 42.9885C49.3506 40.8929 48.6327 38.2133 46.5373 37.0033Z" fill="white" fill-opacity="0.5"/>
<path d="M42.1564 17.751L25.4627 27.3902C23.3673 28.6001 22.6494 31.2797 23.8592 33.3754C25.0689 35.471 27.7483 36.189 29.8436 34.9791L46.5373 25.3399C48.6326 24.13 49.3506 21.4503 48.1408 19.3547C46.931 17.2591 44.2517 16.5411 42.1564 17.751Z" fill="white"/>
</svg>