<svg xmlns="http://www.w3.org/2000/svg" fill="none" viewBox="13.27 17.16 190.09 37.67">
<path d="M32.1564 37.0209L15.4627 46.6601C13.3673 47.87 12.6494 50.5497 13.8592 52.6453C15.0689 54.7409 17.7483 55.459 19.8436 54.249L36.5373 44.6098C38.6326 43.3999 39.3506 40.7202 38.1408 38.6246C36.931 36.529 34.2517 35.8109 32.1564 37.0209Z" fill="#1A7AD0" fill-opacity="0.5"/>
<path d="M36.5373 37.0033L19.8436 27.3641C17.7483 26.1542 15.0689 26.8722 13.8592 28.9679C12.6494 31.0634 13.3673 33.7432 15.4627 34.953L32.1563 44.5923C34.2517 45.8022 36.9311 45.0842 38.1408 42.9885C39.3506 40.8929 38.6327 38.2133 36.5373 37.0033Z" fill="#1A7AD0" fill-opacity="0.5"/>
<path d="M32.1564 17.751L15.4627 27.3902C13.3673 28.6001 12.6494 31.2797 13.8592 33.3754C15.0689 35.471 17.7483 36.189 19.8436 34.9791L36.5373 25.3399C38.6326 24.13 39.3506 21.4503 38.1408 19.3547C36.931 17.2591 34.2517 16.5411 32.1564 17.751Z" fill="#1562A6"/>
<path d="M66.9432 30.625C66.8371 29.6326 66.3902 28.8598 65.6023 28.3068C64.822 27.7538 63.8068 27.4773 62.5568 27.4773C61.678 27.4773 60.9242 27.6098 60.2955 27.875C59.6667 28.1402 59.1856 28.5 58.8523 28.9545C58.5189 29.4091 58.3485 29.928 58.3409 30.5114C58.3409 30.9962 58.4508 31.4167 58.6705 31.7727C58.8977 32.1288 59.2045 32.4318 59.5909 32.6818C59.9773 32.9242 60.4053 33.1288 60.875 33.2955C61.3447 33.4621 61.8182 33.6023 62.2955 33.7159L64.4773 34.2614C65.3561 34.4659 66.2008 34.7424 67.0114 35.0909C67.8295 35.4394 68.5606 35.8788 69.2045 36.4091C69.8561 36.9394 70.3712 37.5795 70.75 38.3295C71.1288 39.0795 71.3182 39.9583 71.3182 40.9659C71.3182 42.3295 70.9697 43.5303 70.2727 44.5682C69.5758 45.5985 68.5682 46.4053 67.25 46.9886C65.9394 47.5644 64.3523 47.8523 62.4886 47.8523C60.678 47.8523 59.1061 47.572 57.7727 47.0114C56.447 46.4508 55.4091 45.6326 54.6591 44.5568C53.9167 43.4811 53.5152 42.1705 53.4545 40.625H57.6023C57.6629 41.4356 57.9129 42.1098 58.3523 42.6477C58.7917 43.1856 59.3636 43.5871 60.0682 43.8523C60.7803 44.1174 61.5758 44.25 62.4545 44.25C63.3712 44.25 64.1742 44.1136 64.8636 43.8409C65.5606 43.5606 66.1061 43.1742 66.5 42.6818C66.8939 42.1818 67.0947 41.5985 67.1023 40.9318C67.0947 40.3258 66.9167 39.8258 66.5682 39.4318C66.2197 39.0303 65.7311 38.697 65.1023 38.4318C64.4811 38.1591 63.7538 37.9167 62.9205 37.7045L60.2727 37.0227C58.3561 36.5303 56.8409 35.7841 55.7273 34.7841C54.6212 33.7765 54.0682 32.4394 54.0682 30.7727C54.0682 29.4015 54.4394 28.2008 55.1818 27.1705C55.9318 26.1402 56.9508 25.3409 58.2386 24.7727C59.5265 24.197 60.9848 23.9091 62.6136 23.9091C64.2652 23.9091 65.7121 24.197 66.9545 24.7727C68.2045 25.3409 69.1856 26.1326 69.8977 27.1477C70.6098 28.1553 70.9773 29.3144 71 30.625H66.9432ZM83.1108 30.0455V33.2273H73.0767V30.0455H83.1108ZM75.554 25.8636H79.6676V42.25C79.6676 42.803 79.7509 43.2273 79.9176 43.5227C80.0919 43.8106 80.3191 44.0076 80.5994 44.1136C80.8797 44.2197 81.1903 44.2727 81.5312 44.2727C81.7888 44.2727 82.0237 44.2538 82.2358 44.2159C82.4555 44.178 82.6222 44.1439 82.7358 44.1136L83.429 47.3295C83.2093 47.4053 82.8949 47.4886 82.4858 47.5795C82.0843 47.6705 81.5919 47.7235 81.0085 47.7386C79.9782 47.7689 79.0502 47.6136 78.2244 47.2727C77.3987 46.9242 76.7434 46.3864 76.2585 45.6591C75.7813 44.9318 75.5464 44.0227 75.554 42.9318V25.8636ZM86.0511 47.5V30.0455H90.0398V32.9545H90.2216C90.5398 31.947 91.0852 31.1705 91.858 30.625C92.6383 30.072 93.5284 29.7955 94.5284 29.7955C94.7557 29.7955 95.0095 29.8068 95.2898 29.8295C95.5777 29.8447 95.8163 29.8712 96.0057 29.9091V33.6932C95.8314 33.6326 95.5549 33.5795 95.1761 33.5341C94.8049 33.4811 94.4451 33.4545 94.0966 33.4545C93.3466 33.4545 92.6723 33.6174 92.0739 33.9432C91.483 34.2614 91.017 34.7045 90.6761 35.2727C90.3352 35.8409 90.1648 36.4962 90.1648 37.2386V47.5H86.0511ZM105.247 47.8409C103.497 47.8409 101.986 47.4773 100.713 46.75C99.4479 46.0152 98.4744 44.9773 97.7926 43.6364C97.1108 42.2879 96.7699 40.7008 96.7699 38.875C96.7699 37.0795 97.1108 35.5038 97.7926 34.1477C98.482 32.7841 99.4441 31.7235 100.679 30.9659C101.914 30.2008 103.365 29.8182 105.031 29.8182C106.107 29.8182 107.122 29.9924 108.077 30.3409C109.039 30.6818 109.887 31.2121 110.622 31.9318C111.365 32.6515 111.948 33.5682 112.372 34.6818C112.796 35.7879 113.009 37.1061 113.009 38.6364V39.8977H98.7017V37.125H109.065C109.058 36.3371 108.887 35.6364 108.554 35.0227C108.221 34.4015 107.755 33.9129 107.156 33.5568C106.565 33.2008 105.876 33.0227 105.088 33.0227C104.247 33.0227 103.509 33.2273 102.872 33.6364C102.236 34.0379 101.74 34.5682 101.384 35.2273C101.035 35.8788 100.857 36.5947 100.849 37.375V39.7955C100.849 40.8106 101.035 41.6818 101.406 42.4091C101.777 43.1288 102.296 43.6818 102.963 44.0682C103.63 44.447 104.41 44.6364 105.304 44.6364C105.902 44.6364 106.444 44.553 106.929 44.3864C107.414 44.2121 107.834 43.9583 108.19 43.625C108.546 43.2917 108.815 42.8788 108.997 42.3864L112.838 42.8182C112.596 43.8333 112.134 44.7197 111.452 45.4773C110.777 46.2273 109.914 46.8106 108.861 47.2273C107.808 47.6364 106.603 47.8409 105.247 47.8409ZM121.011 47.8523C119.905 47.8523 118.909 47.6553 118.023 47.2614C117.144 46.8598 116.447 46.2689 115.932 45.4886C115.424 44.7083 115.17 43.7462 115.17 42.6023C115.17 41.6174 115.352 40.803 115.716 40.1591C116.08 39.5152 116.576 39 117.205 38.6136C117.833 38.2273 118.542 37.9356 119.33 37.7386C120.125 37.5341 120.947 37.3864 121.795 37.2955C122.818 37.1894 123.648 37.0947 124.284 37.0114C124.92 36.9205 125.383 36.7841 125.67 36.6023C125.966 36.4129 126.114 36.1212 126.114 35.7273V35.6591C126.114 34.803 125.86 34.1402 125.352 33.6705C124.845 33.2008 124.114 32.9659 123.159 32.9659C122.152 32.9659 121.352 33.1856 120.761 33.625C120.178 34.0644 119.784 34.5833 119.58 35.1818L115.739 34.6364C116.042 33.5758 116.542 32.6894 117.239 31.9773C117.936 31.2576 118.788 30.7197 119.795 30.3636C120.803 30 121.917 29.8182 123.136 29.8182C123.977 29.8182 124.814 29.9167 125.648 30.1136C126.481 30.3106 127.242 30.6364 127.932 31.0909C128.621 31.5379 129.174 32.1477 129.591 32.9205C130.015 33.6932 130.227 34.6591 130.227 35.8182V47.5H126.273V45.1023H126.136C125.886 45.5871 125.534 46.0417 125.08 46.4659C124.633 46.8826 124.068 47.2197 123.386 47.4773C122.712 47.7273 121.92 47.8523 121.011 47.8523ZM122.08 44.8295C122.905 44.8295 123.621 44.6667 124.227 44.3409C124.833 44.0076 125.299 43.5682 125.625 43.0227C125.958 42.4773 126.125 41.8826 126.125 41.2386V39.1818C125.996 39.2879 125.777 39.3864 125.466 39.4773C125.163 39.5682 124.822 39.6477 124.443 39.7159C124.064 39.7841 123.689 39.8447 123.318 39.8977C122.947 39.9508 122.625 39.9962 122.352 40.0341C121.739 40.1174 121.189 40.2538 120.705 40.4432C120.22 40.6326 119.837 40.8977 119.557 41.2386C119.277 41.572 119.136 42.0038 119.136 42.5341C119.136 43.2917 119.413 43.8636 119.966 44.25C120.519 44.6364 121.223 44.8295 122.08 44.8295ZM133.864 47.5V30.0455H137.795V33.0114H138C138.364 32.0114 138.966 31.2311 139.807 30.6705C140.648 30.1023 141.652 29.8182 142.818 29.8182C144 29.8182 144.996 30.1061 145.807 30.6818C146.625 31.25 147.201 32.0265 147.534 33.0114H147.716C148.102 32.0417 148.754 31.2689 149.67 30.6932C150.595 30.1098 151.689 29.8182 152.955 29.8182C154.561 29.8182 155.871 30.3258 156.886 31.3409C157.902 32.3561 158.409 33.8371 158.409 35.7841V47.5H154.284V36.4205C154.284 35.3371 153.996 34.5455 153.42 34.0455C152.845 33.5379 152.14 33.2841 151.307 33.2841C150.314 33.2841 149.538 33.5947 148.977 34.2159C148.424 34.8295 148.148 35.6288 148.148 36.6136V47.5H144.114V36.25C144.114 35.3485 143.841 34.6288 143.295 34.0909C142.758 33.553 142.053 33.2841 141.182 33.2841C140.591 33.2841 140.053 33.4356 139.568 33.7386C139.083 34.0341 138.697 34.4545 138.409 35C138.121 35.5379 137.977 36.1667 137.977 36.8864V47.5H133.864ZM162.264 47.5V24.2273H166.48V34.0795H177.264V24.2273H181.491V47.5H177.264V37.6136H166.48V47.5H162.264ZM185.577 47.5V24.2273H194.304C196.092 24.2273 197.592 24.5379 198.804 25.1591C200.024 25.7803 200.944 26.6515 201.565 27.7727C202.194 28.8864 202.509 30.1856 202.509 31.6705C202.509 33.1629 202.19 34.4583 201.554 35.5568C200.925 36.6477 199.997 37.4924 198.77 38.0909C197.543 38.6818 196.035 38.9773 194.247 38.9773H188.031V35.4773H193.679C194.724 35.4773 195.58 35.3333 196.247 35.0455C196.914 34.75 197.406 34.322 197.724 33.7614C198.05 33.1932 198.213 32.4962 198.213 31.6705C198.213 30.8447 198.05 30.1402 197.724 29.5568C197.399 28.9659 196.902 28.5189 196.236 28.2159C195.569 27.9053 194.709 27.75 193.656 27.75H189.793V47.5H185.577ZM197.599 36.9545L203.361 47.5H198.656L192.997 36.9545H197.599Z" fill="#1562A6"/>
</svg>