<svg xmlns="http://www.w3.org/2000/svg" fill="none" viewBox="13.27 7.16 190.09 37.67">
<path d="M32.1564 27.0209L15.4627 36.6601C13.3673 37.87 12.6494 40.5497 13.8592 42.6453C15.0689 44.7409 17.7483 45.459 19.8436 44.249L36.5373 34.6098C38.6326 33.3999 39.3506 30.7202 38.1408 28.6246C36.931 26.529 34.2517 25.8109 32.1564 27.0209Z" fill="white" fill-opacity="0.5"/>
<path d="M36.5373 27.0033L19.8436 17.3641C17.7483 16.1542 15.0689 16.8722 13.8592 18.9679C12.6494 21.0634 13.3673 23.7432 15.4627 24.953L32.1563 34.5923C34.2517 35.8022 36.9311 35.0842 38.1408 32.9885C39.3506 30.8929 38.6327 28.2133 36.5373 27.0033Z" fill="white" fill-opacity="0.5"/>
<path d="M32.1564 7.75098L15.4627 17.3902C13.3673 18.6001 12.6494 21.2797 13.8592 23.3754C15.0689 25.471 17.7483 26.189 19.8436 24.9791L36.5373 15.3399C38.6326 14.13 39.3506 11.4503 38.1408 9.35468C36.931 7.25908 34.2517 6.54107 32.1564 7.75098Z" fill="white"/>
<path d="M66.9432 20.625C66.8371 19.6326 66.3902 18.8598 65.6023 18.3068C64.822 17.7538 63.8068 17.4773 62.5568 17.4773C61.678 17.4773 60.9242 17.6098 60.2955 17.875C59.6667 18.1402 59.1856 18.5 58.8523 18.9545C58.5189 19.4091 58.3485 19.928 58.3409 20.5114C58.3409 20.9962 58.4508 21.4167 58.6705 21.7727C58.8977 22.1288 59.2045 22.4318 59.5909 22.6818C59.9773 22.9242 60.4053 23.1288 60.875 23.2955C61.3447 23.4621 61.8182 23.6023 62.2955 23.7159L64.4773 24.2614C65.3561 24.4659 66.2008 24.7424 67.0114 25.0909C67.8295 25.4394 68.5606 25.8788 69.2045 26.4091C69.8561 26.9394 70.3712 27.5795 70.75 28.3295C71.1288 29.0795 71.3182 29.9583 71.3182 30.9659C71.3182 32.3295 70.9697 33.5303 70.2727 34.5682C69.5758 35.5985 68.5682 36.4053 67.25 36.9886C65.9394 37.5644 64.3523 37.8523 62.4886 37.8523C60.678 37.8523 59.1061 37.572 57.7727 37.0114C56.447 36.4508 55.4091 35.6326 54.6591 34.5568C53.9167 33.4811 53.5152 32.1705 53.4545 30.625H57.6023C57.6629 31.4356 57.9129 32.1098 58.3523 32.6477C58.7917 33.1856 59.3636 33.5871 60.0682 33.8523C60.7803 34.1174 61.5758 34.25 62.4545 34.25C63.3712 34.25 64.1742 34.1136 64.8636 33.8409C65.5606 33.5606 66.1061 33.1742 66.5 32.6818C66.8939 32.1818 67.0947 31.5985 67.1023 30.9318C67.0947 30.3258 66.9167 29.8258 66.5682 29.4318C66.2197 29.0303 65.7311 28.697 65.1023 28.4318C64.4811 28.1591 63.7538 27.9167 62.9205 27.7045L60.2727 27.0227C58.3561 26.5303 56.8409 25.7841 55.7273 24.7841C54.6212 23.7765 54.0682 22.4394 54.0682 20.7727C54.0682 19.4015 54.4394 18.2008 55.1818 17.1705C55.9318 16.1402 56.9508 15.3409 58.2386 14.7727C59.5265 14.197 60.9848 13.9091 62.6136 13.9091C64.2652 13.9091 65.7121 14.197 66.9545 14.7727C68.2045 15.3409 69.1856 16.1326 69.8977 17.1477C70.6098 18.1553 70.9773 19.3144 71 20.625H66.9432ZM83.1108 20.0455V23.2273H73.0767V20.0455H83.1108ZM75.554 15.8636H79.6676V32.25C79.6676 32.803 79.7509 33.2273 79.9176 33.5227C80.0919 33.8106 80.3191 34.0076 80.5994 34.1136C80.8797 34.2197 81.1903 34.2727 81.5312 34.2727C81.7888 34.2727 82.0237 34.2538 82.2358 34.2159C82.4555 34.178 82.6222 34.1439 82.7358 34.1136L83.429 37.3295C83.2093 37.4053 82.8949 37.4886 82.4858 37.5795C82.0843 37.6705 81.5919 37.7235 81.0085 37.7386C79.9782 37.7689 79.0502 37.6136 78.2244 37.2727C77.3987 36.9242 76.7434 36.3864 76.2585 35.6591C75.7813 34.9318 75.5464 34.0227 75.554 32.9318V15.8636ZM86.0511 37.5V20.0455H90.0398V22.9545H90.2216C90.5398 21.947 91.0852 21.1705 91.858 20.625C92.6383 20.072 93.5284 19.7955 94.5284 19.7955C94.7557 19.7955 95.0095 19.8068 95.2898 19.8295C95.5777 19.8447 95.8163 19.8712 96.0057 19.9091V23.6932C95.8314 23.6326 95.5549 23.5795 95.1761 23.5341C94.8049 23.4811 94.4451 23.4545 94.0966 23.4545C93.3466 23.4545 92.6723 23.6174 92.0739 23.9432C91.483 24.2614 91.017 24.7045 90.6761 25.2727C90.3352 25.8409 90.1648 26.4962 90.1648 27.2386V37.5H86.0511ZM105.247 37.8409C103.497 37.8409 101.986 37.4773 100.713 36.75C99.4479 36.0152 98.4744 34.9773 97.7926 33.6364C97.1108 32.2879 96.7699 30.7008 96.7699 28.875C96.7699 27.0795 97.1108 25.5038 97.7926 24.1477C98.482 22.7841 99.4441 21.7235 100.679 20.9659C101.914 20.2008 103.365 19.8182 105.031 19.8182C106.107 19.8182 107.122 19.9924 108.077 20.3409C109.039 20.6818 109.887 21.2121 110.622 21.9318C111.365 22.6515 111.948 23.5682 112.372 24.6818C112.796 25.7879 113.009 27.1061 113.009 28.6364V29.8977H98.7017V27.125H109.065C109.058 26.3371 108.887 25.6364 108.554 25.0227C108.221 24.4015 107.755 23.9129 107.156 23.5568C106.565 23.2008 105.876 23.0227 105.088 23.0227C104.247 23.0227 103.509 23.2273 102.872 23.6364C102.236 24.0379 101.74 24.5682 101.384 25.2273C101.035 25.8788 100.857 26.5947 100.849 27.375V29.7955C100.849 30.8106 101.035 31.6818 101.406 32.4091C101.777 33.1288 102.296 33.6818 102.963 34.0682C103.63 34.447 104.41 34.6364 105.304 34.6364C105.902 34.6364 106.444 34.553 106.929 34.3864C107.414 34.2121 107.834 33.9583 108.19 33.625C108.546 33.2917 108.815 32.8788 108.997 32.3864L112.838 32.8182C112.596 33.8333 112.134 34.7197 111.452 35.4773C110.777 36.2273 109.914 36.8106 108.861 37.2273C107.808 37.6364 106.603 37.8409 105.247 37.8409ZM121.011 37.8523C119.905 37.8523 118.909 37.6553 118.023 37.2614C117.144 36.8598 116.447 36.2689 115.932 35.4886C115.424 34.7083 115.17 33.7462 115.17 32.6023C115.17 31.6174 115.352 30.803 115.716 30.1591C116.08 29.5152 116.576 29 117.205 28.6136C117.833 28.2273 118.542 27.9356 119.33 27.7386C120.125 27.5341 120.947 27.3864 121.795 27.2955C122.818 27.1894 123.648 27.0947 124.284 27.0114C124.92 26.9205 125.383 26.7841 125.67 26.6023C125.966 26.4129 126.114 26.1212 126.114 25.7273V25.6591C126.114 24.803 125.86 24.1402 125.352 23.6705C124.845 23.2008 124.114 22.9659 123.159 22.9659C122.152 22.9659 121.352 23.1856 120.761 23.625C120.178 24.0644 119.784 24.5833 119.58 25.1818L115.739 24.6364C116.042 23.5758 116.542 22.6894 117.239 21.9773C117.936 21.2576 118.788 20.7197 119.795 20.3636C120.803 20 121.917 19.8182 123.136 19.8182C123.977 19.8182 124.814 19.9167 125.648 20.1136C126.481 20.3106 127.242 20.6364 127.932 21.0909C128.621 21.5379 129.174 22.1477 129.591 22.9205C130.015 23.6932 130.227 24.6591 130.227 25.8182V37.5H126.273V35.1023H126.136C125.886 35.5871 125.534 36.0417 125.08 36.4659C124.633 36.8826 124.068 37.2197 123.386 37.4773C122.712 37.7273 121.92 37.8523 121.011 37.8523ZM122.08 34.8295C122.905 34.8295 123.621 34.6667 124.227 34.3409C124.833 34.0076 125.299 33.5682 125.625 33.0227C125.958 32.4773 126.125 31.8826 126.125 31.2386V29.1818C125.996 29.2879 125.777 29.3864 125.466 29.4773C125.163 29.5682 124.822 29.6477 124.443 29.7159C124.064 29.7841 123.689 29.8447 123.318 29.8977C122.947 29.9508 122.625 29.9962 122.352 30.0341C121.739 30.1174 121.189 30.2538 120.705 30.4432C120.22 30.6326 119.837 30.8977 119.557 31.2386C119.277 31.572 119.136 32.0038 119.136 32.5341C119.136 33.2917 119.413 33.8636 119.966 34.25C120.519 34.6364 121.223 34.8295 122.08 34.8295ZM133.864 37.5V20.0455H137.795V23.0114H138C138.364 22.0114 138.966 21.2311 139.807 20.6705C140.648 20.1023 141.652 19.8182 142.818 19.8182C144 19.8182 144.996 20.1061 145.807 20.6818C146.625 21.25 147.201 22.0265 147.534 23.0114H147.716C148.102 22.0417 148.754 21.2689 149.67 20.6932C150.595 20.1098 151.689 19.8182 152.955 19.8182C154.561 19.8182 155.871 20.3258 156.886 21.3409C157.902 22.3561 158.409 23.8371 158.409 25.7841V37.5H154.284V26.4205C154.284 25.3371 153.996 24.5455 153.42 24.0455C152.845 23.5379 152.14 23.2841 151.307 23.2841C150.314 23.2841 149.538 23.5947 148.977 24.2159C148.424 24.8295 148.148 25.6288 148.148 26.6136V37.5H144.114V26.25C144.114 25.3485 143.841 24.6288 143.295 24.0909C142.758 23.553 142.053 23.2841 141.182 23.2841C140.591 23.2841 140.053 23.4356 139.568 23.7386C139.083 24.0341 138.697 24.4545 138.409 25C138.121 25.5379 137.977 26.1667 137.977 26.8864V37.5H133.864ZM162.264 37.5V14.2273H166.48V24.0795H177.264V14.2273H181.491V37.5H177.264V27.6136H166.48V37.5H162.264ZM185.577 37.5V14.2273H194.304C196.092 14.2273 197.592 14.5379 198.804 15.1591C200.024 15.7803 200.944 16.6515 201.565 17.7727C202.194 18.8864 202.509 20.1856 202.509 21.6705C202.509 23.1629 202.19 24.4583 201.554 25.5568C200.925 26.6477 199.997 27.4924 198.77 28.0909C197.543 28.6818 196.035 28.9773 194.247 28.9773H188.031V25.4773H193.679C194.724 25.4773 195.58 25.3333 196.247 25.0455C196.914 24.75 197.406 24.322 197.724 23.7614C198.05 23.1932 198.213 22.4962 198.213 21.6705C198.213 20.8447 198.05 20.1402 197.724 19.5568C197.399 18.9659 196.902 18.5189 196.236 18.2159C195.569 17.9053 194.709 17.75 193.656 17.75H189.793V37.5H185.577ZM197.599 26.9545L203.361 37.5H198.656L192.997 26.9545H197.599Z" fill="white"/>
</svg>